<?xml version="1.0" encoding="iso-8859-1"?>
<!-- Generator: Adobe Illustrator 19.0.0, SVG Export Plug-In . SVG Version: 6.00 Build 0)  -->
<svg version="1.1" id="Layer_1" xmlns="http://www.w3.org/2000/svg" xmlns:xlink="http://www.w3.org/1999/xlink" x="0px" y="0px"
	 viewBox="0 0 512 512" style="enable-background:new 0 0 512 512;" xml:space="preserve">
<g>
	<rect x="8.517" y="128.202" style="fill:#2BA5F7;" width="494.968" height="255.586"/>
</g>
<path style="fill:#E6E6E6;" d="M230.266,256.001c0-50.366-40.754-91.12-91.12-91.12s-91.12,40.754-91.12,91.12
	s40.754,91.12,91.12,91.12S230.266,306.365,230.266,256.001z"/>
<g>
	<path style="fill:#FFFFFF;" d="M475.095,351.123c-4.703,0-8.517-3.813-8.517-8.517V183.632c0-4.703,3.813-8.516,8.517-8.516
		c4.703,0,8.517,3.813,8.517,8.516v158.975C483.612,347.31,479.798,351.123,475.095,351.123z"/>
	<circle style="fill:#FFFFFF;" cx="475.096" cy="156.59" r="8.517"/>
</g>
<g>
	<path style="fill:#333333;" d="M139.146,355.637c54.939,0,99.636-44.697,99.636-99.636s-44.697-99.636-99.636-99.636
		S39.51,201.061,39.51,256.001S84.207,355.637,139.146,355.637z M72.205,207.689c4.293,3.868,8.899,7.333,13.754,10.379
		c-2.143,9.325-3.496,19.24-3.98,29.419H56.98C58.498,232.727,63.934,219.118,72.205,207.689z M221.312,247.487h-25.427
		c-0.485-10.178-1.837-20.093-3.98-29.418c4.952-3.107,9.645-6.654,14.012-10.617C214.286,218.929,219.784,232.624,221.312,247.487z
		 M205.918,304.549c-4.367-3.963-9.06-7.51-14.012-10.617c2.143-9.323,3.495-19.237,3.98-29.411h25.426
		C219.782,279.38,214.284,293.073,205.918,304.549z M147.45,296.133c8.43,0.879,16.632,3.06,24.331,6.401
		c-1.321,3.831-2.8,7.488-4.452,10.905c-5.591,11.565-12.553,19.539-19.879,23.082V296.133z M147.45,279.026V264.52h31.383
		c-0.385,7.372-1.271,14.555-2.619,21.399C167.073,282.227,157.381,279.882,147.45,279.026z M147.45,247.487v-14.512
		c9.931-0.856,19.623-3.201,28.763-6.893c1.348,6.845,2.234,14.032,2.62,21.406H147.45V247.487z M147.45,215.867V175.48
		c7.325,3.543,14.288,11.517,19.88,23.083c1.652,3.417,3.132,7.072,4.452,10.903C164.082,212.807,155.88,214.99,147.45,215.867z
		 M130.417,215.867c-8.431-0.879-16.634-3.061-24.335-6.401c1.319-3.831,2.8-7.487,4.452-10.903
		c5.591-11.565,12.554-19.54,19.882-23.083V215.867z M130.417,232.974v14.513H99.031c0.385-7.374,1.271-14.561,2.62-21.407
		C110.792,229.772,120.485,232.117,130.417,232.974z M130.417,264.52v14.506c-9.933,0.857-19.625,3.202-28.767,6.894
		c-1.348-6.844-2.234-14.027-2.619-21.4H130.417z M130.417,296.133v40.388c-7.328-3.542-14.291-11.517-19.882-23.083
		c-1.652-3.417-3.132-7.072-4.452-10.903C113.783,299.194,121.985,297.012,130.417,296.133z M95.2,320.852
		c1.264,2.615,2.609,5.082,4.014,7.427c-5.662-3.14-10.923-6.917-15.673-11.249c2.386-2.155,4.888-4.158,7.492-6.009
		C92.303,314.436,93.688,317.726,95.2,320.852z M182.663,320.852c1.511-3.126,2.897-6.416,4.166-9.831
		c2.681,1.907,5.252,3.979,7.702,6.208c-4.877,4.416-10.281,8.261-16.108,11.423C179.911,326.197,181.332,323.607,182.663,320.852z
		 M186.831,200.979c-1.27-3.416-2.655-6.705-4.166-9.83c-1.326-2.743-2.733-5.34-4.214-7.786c5.816,3.16,11.211,7.001,16.081,11.41
		C192.081,197,189.51,199.073,186.831,200.979z M95.2,191.148c-1.511,3.126-2.897,6.416-4.166,9.831
		c-2.603-1.851-5.106-3.855-7.492-6.009c4.748-4.33,10.006-8.104,15.665-11.244C97.804,186.069,96.463,188.537,95.2,191.148z
		 M81.978,264.52c0.485,10.176,1.837,20.089,3.98,29.413c-4.854,3.044-9.46,6.511-13.752,10.379
		c-8.27-11.427-13.705-25.033-15.224-39.791L81.978,264.52L81.978,264.52z"/>
	<path style="fill:#333333;" d="M503.483,119.69H8.517c-4.703,0-8.517,3.813-8.517,8.517v255.587c0,4.703,3.813,8.517,8.517,8.517
		h494.967c4.703,0,8.517-3.813,8.517-8.517V128.206C512,123.503,508.187,119.69,503.483,119.69z M494.967,375.277H17.033V136.723
		h477.934V375.277z"/>
	<path style="fill:#333333;" d="M287.528,269.175h166.084c4.703,0,8.517-3.813,8.517-8.517c0-4.703-3.813-8.517-8.517-8.517H287.528
		c-4.703,0-8.517,3.813-8.517,8.517C279.011,265.362,282.824,269.175,287.528,269.175z"/>
	<path style="fill:#333333;" d="M287.528,304.708h166.084c4.703,0,8.517-3.813,8.517-8.517c0-4.703-3.813-8.517-8.517-8.517H287.528
		c-4.703,0-8.517,3.813-8.517,8.517C279.011,300.895,282.824,304.708,287.528,304.708z"/>
	<path style="fill:#333333;" d="M287.528,340.24h166.084c4.703,0,8.517-3.813,8.517-8.517c0-4.703-3.813-8.517-8.517-8.517H287.528
		c-4.703,0-8.517,3.813-8.517,8.517C279.011,336.427,282.824,340.24,287.528,340.24z"/>
</g>
<g>
</g>
<g>
</g>
<g>
</g>
<g>
</g>
<g>
</g>
<g>
</g>
<g>
</g>
<g>
</g>
<g>
</g>
<g>
</g>
<g>
</g>
<g>
</g>
<g>
</g>
<g>
</g>
<g>
</g>
</svg>
