<?xml version="1.0" encoding="iso-8859-1"?>
<!-- Generator: Adobe Illustrator 16.0.0, SVG Export Plug-In . SVG Version: 6.00 Build 0)  -->
<!DOCTYPE svg PUBLIC "-//W3C//DTD SVG 1.1//EN" "http://www.w3.org/Graphics/SVG/1.1/DTD/svg11.dtd">
<svg version="1.1" id="Capa_1" xmlns="http://www.w3.org/2000/svg" xmlns:xlink="http://www.w3.org/1999/xlink" x="0px" y="0px"
	 width="279.985px" height="279.985px" viewBox="0 0 279.985 279.985" style="enable-background:new 0 0 279.985 279.985;"
	 xml:space="preserve">
<g>
	<g>
		<path d="M279.281,80.528c0.101-15.6,4.701-49.7-19.1-51.7c-58.1-4.9-117.199-6.3-175.5-8.3c-20.9-0.7-54.5-3.3-68,17.6
			c-16.8,25.9-13.2,64.9-14.9,94.6c-1,17.399-7.7,67.199,13.6,78c29.7,15.1,68.2,1.5,99.5-0.9c1-0.1,1.8-0.5,2.5-1
			c4.4,16.7,10.7,33.6,19.6,48.2c2.9,4.8,9,3.2,10.9-1.4c4.5-10.899,6.3-22.7,8.3-34.2c0.9-5.199,3.1-11.5,4.4-17.5
			c0.5,0.101,1,0.2,1.6,0.2c29-2.2,73.7,10.2,98.801-8.399C285.882,177.328,279.082,106.328,279.281,80.528z M246.682,189.128
			c-24.5,9.3-58.699,0.4-84.6,2.4c-0.6,0-1,0.3-1.5,0.399c-1.301-2.1-3.801-3.199-6.4-1.8c-7.699,4.3-7.9,17.601-9.199,25.2
			c-1.4,8-2.701,16.2-4.601,24.2c-6.8-13-11.9-26.7-19.3-39.5c-1.4-2.4-4.5-1.5-5.3,0.5c-0.3-0.101-0.6-0.2-0.9-0.2
			c-20.1-0.1-39.9,1.6-59.9,2.6c-42.5,2.2-41.7-27.8-40.8-60.8c0.5-20.2,3.2-40.2,3.7-60.399c1.2-45.1,29.2-49.4,66.9-48.4
			c38.4,1,76.9,3.1,115.201,5.5c16,1,31.699,2.5,47.699,2.5c21.7,0,18.5,24.5,18.5,39.2
			C266.082,104.128,274.182,178.729,246.682,189.128z"/>
		<path d="M62.882,52.729c0-7.8-12-7.8-12.1,0c-0.2,15.4,0,33.3,5.4,47.9c0.9,2.5,5.3,2.4,5-0.7
			C59.882,83.928,62.882,68.628,62.882,52.729z"/>
		<path d="M131.182,89.729c-5-0.7-9.7-0.6-14.6-1.5c-0.5-10.6-0.9-21.3-2.1-31.8c-0.5-4.2-6.1-4.2-6.6,0c-1.4,12-1.7,24.2-2.3,36.3
			c-0.1,2.5,1.8,4.6,4.1,5.4c7.6,2.4,16.5,4.7,23.8,0.5C138.182,96.028,135.482,90.328,131.182,89.729z"/>
		<path d="M153.781,52.729c-3,0.9-3.399,4.1-1.699,6.4c0.1,0.1,0.199,0.2,0.199,0.3c-7.199,0.3-11.199,16.5-12.5,21.5
			c-3.1,11.7,0.3,25,14.701,24.3C182.382,103.729,173.781,46.528,153.781,52.729z M151.582,94.428c-8.1-1.4,2.3-25.3,2.3-33.1
			c3.8,4.8,6.7,8.7,7.399,15.8C161.982,83.428,160.781,96.028,151.582,94.428z"/>
		<path d="M203.882,58.928c-0.7-2.4-3.5-3.5-5.7-2.3c-5.5,3.1-6.199,9.3-8,15c-1.4,4.4-2.9,8.8-4.699,12.9
			c-2.701-10.1-4.601-20.3-6.301-30.7c-0.5-3.3-4.9-2-5.3,0.7c-1.899,15.1,2.3,30.2,4.8,45c0.6,3.8,6.5,5.4,9,2.4
			c4.7-6,8-12.3,10.6-19.4C200.781,75.828,205.982,66.028,203.882,58.928z"/>
		<path d="M232.582,90.328c-3.9,0.6-7.301,2.3-11,3.3c-0.1-2.9-0.1-5.9-0.1-8.8c4.1,0.3,8.5,0.1,10.699-3.1c1.2-1.7,0.1-4.9-2.1-5.2
			c-2.9-0.4-3.7,0.8-6.301,1.6c-0.799,0.2-1.6,0.3-2.399,0.5c0-5.7,0-11.5-0.101-17.2c3.701,1.2,8.601,0.9,11.5,1.4
			c2.5,0.4,5.301-0.6,5.9-3.3c0.2-1,0.2-1.5,0-2.5c-0.6-2.7-3.4-3.8-5.9-3.3c-3.399,0.6-9.299,0-13.1,1.9c-0.8,0.4-1.199,1-1.5,1.5
			c-1.199,0-2.5,0.6-2.9,2.1c-3.699,13.1-3.399,27.3-4.199,40.7c-0.2,2.8,2.5,5.4,5.3,5.3c6.3-0.3,16.601-1.3,20.899-6.7
			c1.301-1.6,2.201-4,0.801-5.9C236.781,90.628,234.982,89.928,232.582,90.328z"/>
		<path d="M60.882,125.828c-8.8,2.1-18.7,0.5-27.7,1.4c-4.6,0.5-4.6,6.6,0,7.1c3.8,0.4,7.8,0.3,11.7,0.3c-0.5,5.3,0.6,11.1,0.9,16.1
			c0.5,6.899,1.2,13.899,2.9,20.699c0.7,2.9,5.3,2.301,5.2-0.699c-0.1-6.7-0.4-13.301-0.4-20c0-5.101,1-10.7,0.5-16
			c2.3,0.2,4.5,0.4,6.7,1C69.182,137.729,69.182,123.828,60.882,125.828z"/>
		<path d="M96.182,171.128c-2.7-7.3-4.5-13.899-8.9-19.3c5.6-3.9,9.5-9.7,8.9-17.3c-0.8-10-10.4-14.6-19.4-14.1
			c-2.7,0.1-4.9,2.1-4.9,4.9c-0.1,14.6-1.1,29-2.2,43.5c-0.3,3.8,6.1,4.7,6.7,0.9c0.7-4.2,1.4-8.301,2.1-12.5
			c4.4,4.5,5.6,10.5,7.9,16.6C88.682,179.828,98.482,177.328,96.182,171.128z M81.382,130.729c6.8,2,5.2,9.6-1.1,13.6
			C80.782,139.729,81.182,135.229,81.382,130.729z"/>
		<path d="M127.782,151.328c-2.4-11.1-5.9-22.6-12.3-32.1c-2.1-3.1-6.5-3.2-8.5,0c-10.3,16.2-9.5,39.6-5.7,57.699
			c0.7,3.2,5.5,2.4,5.5-0.699c0-3.9,0-7.9,0-11.9c3,0.2,5.9,0.4,8.9,0.7c1.3,0.1,2.6,0.399,3.8,0.8c0.5,3.2,1.2,6.3,2.5,9
			c1.4,2.7,6.1,2.9,7.5,0C132.582,167.828,129.282,158.229,127.782,151.328z M117.382,158.928c-3.5,0-7,0-10.5,0.101
			c0.3-9.101,1.3-18.2,4.5-26.5c2.6,6,4.4,12.3,6,18.7c0.6,2.399,0.9,5,1.2,7.699C118.182,158.928,117.782,158.928,117.382,158.928z
			"/>
		<path d="M173.582,124.128c-1.2-3-4.801-4.4-7.4-1.9c-4.6,4.4-5.5,13.2-7.5,19c-2.199,6.199-4.699,12.399-7.4,18.399
			c-4.1-10.399-7.1-21.5-10-32.2c-0.899-3.3-5.399-2.4-5.699,0.8c-1.3,15.199,4.8,33.3,10.8,47.1c1.7,3.8,7.601,3.3,9.399,0
			c4.701-8.4,8.301-17.3,11.701-26.2C170.082,142.528,176.281,131.229,173.582,124.128z"/>
		<path d="M200.182,159.128c-4.1,0.2-8.6,1.3-12.9,2.5c-0.1-3.2,0-6.399-0.1-9.5c4.2,0.7,9.9,2.3,12.5-1.399c0.7-1,0.7-2.7,0-3.7
			c-2.6-3.7-8.3-2.101-12.5-1.4c0-1.1,0-2.2,0-3.399c0.1-2.5,0-6.4,0-10c0.9,0.3,1.9,0.5,2.801,0.8c3.5,0.9,6.5,2,10.199,1.7
			c3-0.3,5.801-4.3,2.801-6.7c-4.5-3.6-9.9-3.3-15.301-3.6c0-0.1,0-0.2,0.1-0.3c0.601-2-2.199-3.8-3.6-2.1c-0.5,0.6-0.9,1.3-1.3,1.9
			c-3.2-0.5-5.8,3.9-3,5.8c-4.3,11.699-2.8,27.899-3.2,39.199c-0.1,3.5,3.5,6.101,6.801,5.2c7.5-2,15.699-1.6,20.399-8.5
			C205.682,162.928,203.281,159.028,200.182,159.128z"/>
		<path d="M234.982,159.628c-4.201-2.2-9.801-0.399-15,0.9c-0.4-12.3,0.1-24.7,0.299-37c0.101-4.3-6.6-5.3-7.5-1
			c-3.199,14.7-2.799,29.7-3.699,44.6c-0.2,3,2.699,5.7,5.6,5.601c6.801-0.2,20-0.2,22.4-8.101
			C237.582,162.729,236.781,160.528,234.982,159.628z"/>
	</g>
</g>
<g>
</g>
<g>
</g>
<g>
</g>
<g>
</g>
<g>
</g>
<g>
</g>
<g>
</g>
<g>
</g>
<g>
</g>
<g>
</g>
<g>
</g>
<g>
</g>
<g>
</g>
<g>
</g>
<g>
</g>
</svg>
